<svg xmlns="http://www.w3.org/2000/svg" width="56.588" height="56.588" viewBox="0 0 56.588 56.588">
  <path id="linkedin-brands" d="M52.546,32H4.029A4.059,4.059,0,0,0,0,36.08V84.508a4.059,4.059,0,0,0,4.029,4.08H52.546a4.07,4.07,0,0,0,4.042-4.08V36.08A4.07,4.07,0,0,0,52.546,32ZM17.1,80.5H8.716V53.5h8.4V80.5ZM12.909,49.81a4.863,4.863,0,1,1,4.863-4.863A4.865,4.865,0,0,1,12.909,49.81ZM48.542,80.5H40.155V67.368c0-3.133-.063-7.162-4.358-7.162-4.37,0-5.04,3.41-5.04,6.935V80.5H22.37V53.5h8.046v3.688h.114a8.834,8.834,0,0,1,7.945-4.358c8.488,0,10.067,5.6,10.067,12.871Z" transform="translate(0 -32)" fill="#0e76a8"/>
</svg>
